<?xml version="1.0" encoding="UTF-8" standalone="no"?>
<!-- Created with Inkscape (http://www.inkscape.org/) -->

<svg
   xmlns:dc="http://purl.org/dc/elements/1.1/"
   xmlns:cc="http://creativecommons.org/ns#"
   xmlns:rdf="http://www.w3.org/1999/02/22-rdf-syntax-ns#"
   xmlns:svg="http://www.w3.org/2000/svg"
   xmlns="http://www.w3.org/2000/svg"
   xmlns:sodipodi="http://sodipodi.sourceforge.net/DTD/sodipodi-0.dtd"
   xmlns:inkscape="http://www.inkscape.org/namespaces/inkscape"
   version="1.1"
   id="svg10"
   xml:space="preserve"
   width="2560"
   height="1440"
   viewBox="0 0 2560 1440"
   sodipodi:docname="Josh Conner 5 EDIT.svg"
   inkscape:export-filename="D:\OneDrive\Personal Website\resources\images\logo2.png"
   inkscape:export-xdpi="10.968843"
   inkscape:export-ydpi="10.968843"
   inkscape:version="0.92.2 (5c3e80d, 2017-08-06)"><metadata
     id="metadata16"><rdf:RDF><cc:Work
         rdf:about=""><dc:format>image/svg+xml</dc:format><dc:type
           rdf:resource="http://purl.org/dc/dcmitype/StillImage" /><dc:title></dc:title></cc:Work></rdf:RDF></metadata><defs
     id="defs14"><clipPath
       clipPathUnits="userSpaceOnUse"
       id="clipPath26"><path
         d="M 0,1080 H 1920 V 0 H 0 Z"
         id="path24"
         inkscape:connector-curvature="0" /></clipPath></defs><sodipodi:namedview
     pagecolor="#ffffff"
     bordercolor="#666666"
     borderopacity="1"
     objecttolerance="10"
     gridtolerance="10"
     guidetolerance="10"
     inkscape:pageopacity="0"
     inkscape:pageshadow="2"
     inkscape:window-width="2560"
     inkscape:window-height="1017"
     id="namedview12"
     showgrid="false"
     inkscape:zoom="0.58888889"
     inkscape:cx="1221.4151"
     inkscape:cy="720"
     inkscape:window-x="-8"
     inkscape:window-y="-8"
     inkscape:window-maximized="1"
     inkscape:current-layer="g22" /><g
     id="g18"
     inkscape:groupmode="layer"
     inkscape:label="Josh Conner 5 New"
     transform="matrix(1.3333333,0,0,-1.3333333,0,1440)"><g
       id="g20"><g
         id="g22"
         clip-path="url(#clipPath26)"><g
           id="g28"
           transform="translate(640.0566,215.4844)"><path
             d="m 0,0 -0.099,-1.3 c 0,-8.662 4.32,-12.992 12.962,-12.992 4.815,0 8.312,1.039 10.489,3.118 2.176,2.078 3.265,5.283 3.265,9.614 v 44.523 l 6.728,0.087 0.099,-39.499 c 0,-7.912 -1.123,-13.485 -3.364,-16.718 -2.968,-4.274 -8.707,-6.409 -17.217,-6.409 -6.201,0 -11.05,1.485 -14.545,4.461 -3.498,2.972 -5.245,7.202 -5.245,12.689 v 1.213 z"
             style="fill:#000000;fill-opacity:1;fill-rule:nonzero;stroke:none"
             id="path30"
             inkscape:connector-curvature="0" /></g><g
           id="g32"
           transform="translate(714.5625,200.7588)"><path
             d="m 0,0 c 7.783,0 13.72,3.002 17.811,9.009 3.496,5.08 5.244,11.174 5.244,18.276 0,7.391 -1.716,13.541 -5.145,18.449 -4.156,5.832 -10.192,8.749 -18.108,8.749 -7.653,0 -13.654,-2.887 -18.008,-8.661 -3.562,-4.851 -5.343,-10.915 -5.343,-18.19 0,-7.277 1.781,-13.485 5.343,-18.623 C -14.05,3.002 -7.982,0 0,0 m -0.198,59.421 c 9.895,0 17.547,-3.177 22.956,-9.527 4.881,-5.777 7.323,-13.081 7.323,-21.915 0,-9.182 -2.409,-16.777 -7.224,-22.782 C 17.25,-1.617 9.433,-5.024 -0.593,-5.024 c -9.632,0 -17.218,3.407 -22.758,10.221 -4.75,6.005 -7.124,13.483 -7.124,22.435 0,8.776 2.474,16.111 7.42,22.001 5.475,6.525 13.094,9.788 22.857,9.788"
             style="fill:#000000;fill-opacity:1;fill-rule:nonzero;stroke:none"
             id="path34"
             inkscape:connector-curvature="0" /></g><g
           id="g36"
           transform="translate(759.0889,215.4844)"><path
             d="m 0,0 c 0,-4.909 1.88,-8.749 5.64,-11.521 3.429,-2.368 8.048,-3.551 13.853,-3.551 4.947,0 9.202,1.007 12.764,3.023 4.221,2.304 6.333,5.443 6.333,9.416 0,5.24 -3.604,9.157 -10.809,11.749 L 7.902,14.598 C 0.721,17.142 -2.87,21.103 -2.87,26.48 v 3.209 c 0,4.627 2.474,8.328 7.422,11.103 4.287,2.313 9.234,3.471 14.842,3.471 12.005,0 20.217,-4.476 24.638,-13.427 l -6.234,-2.858 c -1.716,3.926 -3.992,6.828 -6.828,8.705 -2.836,1.877 -6.663,2.815 -11.477,2.815 -4.091,0 -7.654,-0.81 -10.686,-2.426 -3.629,-1.963 -5.442,-4.648 -5.442,-8.054 0,-4.852 3.626,-8.432 10.884,-10.742 l 20.086,-5.63 C 41.59,9.7 45.219,4.734 45.219,-2.253 c 0,-5.543 -2.804,-9.99 -8.41,-13.339 -5.014,-3.002 -10.786,-4.505 -17.316,-4.505 -14.645,0 -23.418,5.717 -26.32,17.152 z"
             style="fill:#000000;fill-opacity:1;fill-rule:nonzero;stroke:none"
             id="path38"
             inkscape:connector-curvature="0" /></g><g
           id="g40"
           transform="translate(813.0146,258.5342)"><path
             d="M 0,0 H 6.234 V -27.112 H 48.781 V -0.26 h 6.531 v -61.067 h -6.531 v 29.104 H 6.234 V -61.327 H 0 Z"
             style="fill:#000000;fill-opacity:1;fill-rule:nonzero;stroke:none"
             id="path42"
             inkscape:connector-curvature="0" /></g><g
           id="g44"
           transform="translate(956.0913,241.4707)"><path
             d="m 0,0 c -2.375,9.123 -8.839,13.686 -19.394,13.686 -8.113,0 -14.347,-2.422 -18.7,-7.265 -3.826,-4.382 -5.739,-10.264 -5.739,-17.643 0,-19.43 8.146,-29.144 24.439,-29.144 5.542,0 9.763,1.061 12.666,3.184 2.374,1.721 4.749,4.991 7.124,9.81 l 6.432,-3.105 c -4.354,-5.919 -7.851,-9.712 -10.489,-11.379 -3.826,-2.471 -9.236,-3.707 -16.227,-3.707 -10.488,0 -18.405,3.2 -23.747,9.601 -4.75,5.709 -7.125,13.322 -7.125,22.839 0,8.822 2.308,16.145 6.927,21.972 5.276,6.573 12.796,9.86 22.559,9.86 7.19,0 12.847,-1.141 16.97,-3.421 C -0.182,13.006 3.463,8.95 6.63,3.118 Z"
             style="fill:#000000;fill-opacity:1;fill-rule:nonzero;stroke:none"
             id="path46"
             inkscape:connector-curvature="0" /></g><g
           id="g48"
           transform="translate(999.3311,200.7588)"><path
             d="m 0,0 c 7.783,0 13.72,3.002 17.811,9.009 3.496,5.08 5.245,11.174 5.245,18.276 0,7.391 -1.717,13.541 -5.147,18.449 -4.154,5.832 -10.19,8.749 -18.107,8.749 -7.653,0 -13.655,-2.887 -18.008,-8.661 -3.562,-4.851 -5.343,-10.915 -5.343,-18.19 0,-7.277 1.781,-13.485 5.343,-18.623 C -14.05,3.002 -7.981,0 0,0 m -0.198,59.421 c 9.895,0 17.547,-3.177 22.957,-9.527 4.88,-5.777 7.322,-13.081 7.322,-21.915 0,-9.182 -2.409,-16.777 -7.224,-22.782 C 17.25,-1.617 9.433,-5.024 -0.594,-5.024 c -9.631,0 -17.217,3.407 -22.757,10.221 -4.751,6.005 -7.125,13.483 -7.125,22.435 0,8.776 2.475,16.111 7.421,22.001 5.475,6.525 13.094,9.788 22.857,9.788"
             style="fill:#000000;fill-opacity:1;fill-rule:nonzero;stroke:none"
             id="path50"
             inkscape:connector-curvature="0" /></g><g
           id="g52"
           transform="translate(1040.0977,258.708)"><path
             d="m 0,0 6.045,0.005 22.773,-28.488 9.762,-12.235 c 3.961,-4.907 7.031,-9.034 9.212,-12.381 0,3.586 -0.034,6.419 -0.1,8.503 -0.33,10.353 -0.495,16.282 -0.495,17.786 V 0 h 6.63 v -61.328 l -6.628,0.002 -41.262,53.01 V -61.067 H 0 Z"
             style="fill:#000000;fill-opacity:1;fill-rule:nonzero;stroke:none"
             id="path54"
             inkscape:connector-curvature="0" /></g><g
           id="g56"
           transform="translate(1107.876,258.708)"><path
             d="m 0,0 6.046,0.005 22.773,-28.488 9.761,-12.235 c 3.961,-4.907 7.031,-9.034 9.212,-12.381 0,3.586 -0.034,6.419 -0.1,8.503 -0.33,10.353 -0.494,16.282 -0.494,17.786 V 0 h 6.629 V -61.328 L 47.2,-61.326 5.937,-8.316 V -61.067 H 0 Z"
             style="fill:#000000;fill-opacity:1;fill-rule:nonzero;stroke:none"
             id="path58"
             inkscape:connector-curvature="0" /></g><g
           id="g60"
           transform="translate(1176.249,258.4473)"><path
             d="M 0,0 H 45.416 V -5.284 H 6.431 v -21.654 h 35.225 v -5.544 H 6.431 v -23.214 h 41.163 v -5.371 H 0 Z"
             style="fill:#000000;fill-opacity:1;fill-rule:nonzero;stroke:none"
             id="path62"
             inkscape:connector-curvature="0" /></g><g
           id="g64"
           transform="translate(1264.0146,229.7764)"><path
             d="m 0,0 c 4.353,0 7.865,0.996 10.537,2.988 2.672,1.992 4.008,4.865 4.008,8.618 0,8.085 -5.477,12.127 -16.426,12.127 h -21.966 l 0,-23.733 z m -30.378,28.671 h 30.279 c 6.2,0 11.28,-1.503 15.238,-4.505 3.957,-3.003 5.936,-7.16 5.936,-12.472 C 21.075,6.67 19.08,2.627 15.089,-0.433 11.098,-3.494 6.298,-5.024 0.692,-5.024 L 22.855,-32.57 14.633,-32.576 -7.448,-5.284 h -16.399 v -27.285 h -6.531 z"
             style="fill:#000000;fill-opacity:1;fill-rule:nonzero;stroke:none"
             id="path66"
             inkscape:connector-curvature="0" /></g><g
           id="g68"
           transform="translate(918.2139,685.5859)"><path
             d="M 0,0 V 198.718 H 77.519 Z"
             style="fill:#000000;fill-opacity:1;fill-rule:nonzero;stroke:none"
             id="path70"
             inkscape:connector-curvature="0" /></g><g
           id="g72"
           transform="translate(918.2139,599.8008)"><path
             d="M 82.9013,0 4.7683,-199.335 h 78.133 z"
             style="fill:#000000;fill-opacity:1;fill-rule:nonzero;stroke:none"
             id="path74"
             inkscape:connector-curvature="0" /></g><g
           id="g76"
           transform="translate(1001.1152,884.6123)"><path
             d="M 0,0 V -199.334 H -78.135 Z"
             style="fill:#000000;fill-opacity:1;fill-rule:nonzero;stroke:none"
             id="path78"
             inkscape:connector-curvature="0" /></g><g
           id="g80"
           transform="translate(1001.1152,399.54)"><path
             d="m -82.9013,0 77.519,198.719 h -77.519 z"
             style="fill:#000000;fill-opacity:1;fill-rule:nonzero;stroke:none"
             id="path82"
             inkscape:connector-curvature="0" /></g><g
           id="g84"
           transform="translate(1205.9834,479.3672)"><path
             d="M 0,0 -199.949,-78.134 V 0 Z"
             style="fill:#000000;fill-opacity:1;fill-rule:nonzero;stroke:none"
             id="path86"
             inkscape:connector-curvature="0" /></g><g
           id="g88"
           transform="translate(1016.1084,400.4658)"><path
             d="M 0,0 199.334,77.519 V 0 Z"
             style="fill:#000000;fill-opacity:1;fill-rule:nonzero;stroke:none"
             id="path90"
             inkscape:connector-curvature="0" /></g><g
           id="g92"
           transform="translate(1016.6914,722.1846)"><path
             d="M 0,0 Z"
             style="fill:#000000;fill-opacity:1;fill-rule:nonzero;stroke:none"
             id="path94"
             inkscape:connector-curvature="0" /></g><g
           id="g96"
           transform="translate(996.1162,681.3428)"><path
             d="M -72.138,0 5.382,-78.75 V 0 Z"
             style="fill:#000000;fill-opacity:1;fill-rule:nonzero;stroke:none"
             id="path98"
             inkscape:connector-curvature="0" /></g><g
           id="g100"
           transform="translate(923.3652,601.8262)"><path
             d="M 73.364,0 -4.769,78.134 V 0 Z"
             style="fill:#000000;fill-opacity:1;fill-rule:nonzero;stroke:none"
             id="path102"
             inkscape:connector-curvature="0" /></g><g
           id="g104"
           transform="translate(1006.6592,802.8057)"><path
             d="M 0,0 V 78.133 L 199.949,0 Z"
             style="fill:#000000;fill-opacity:1;fill-rule:nonzero;stroke:none"
             id="path106"
             inkscape:connector-curvature="0" /></g><g
           id="g108"
           transform="translate(1216.0674,881.707)"><path
             d="M 0,0 V -77.519 L -199.334,0 Z"
             style="fill:#000000;fill-opacity:1;fill-rule:nonzero;stroke:none"
             id="path110"
             inkscape:connector-curvature="0" /></g><g
           id="g112"
           transform="translate(903.8823,479.4443)"><path
             d="m 0,-78.9013 -199.949,78.133 v -78.133 z"
             style="fill:#000000;fill-opacity:1;fill-rule:nonzero;stroke:none"
             id="path114"
             inkscape:connector-curvature="0" /></g><g
           id="g116"
           transform="translate(714.0078,400.543)"><path
             d="M 0,78.9013 199.333,1.3823 v 77.519 z"
             style="fill:#000000;fill-opacity:1;fill-rule:nonzero;stroke:none"
             id="path118"
             inkscape:connector-curvature="0" /></g></g></g></g></svg>